<svg width="60" height="90" viewBox="0 0 60 90" xmlns="http://www.w3.org/2000/svg">
    <!-- Pins -->
    <rect x="14" y="65" width="2" height="15" fill="#cbd5e1" />
    <rect x="24" y="65" width="2" height="15" fill="#cbd5e1" />
    <rect x="34" y="65" width="2" height="15" fill="#cbd5e1" />
    <rect x="44" y="65" width="2" height="15" fill="#cbd5e1" />

    <rect x="13" y="80" width="4" height="4" fill="none" stroke="#cbd5e1" stroke-width="0.5" />
    <rect x="23" y="80" width="4" height="4" fill="none" stroke="#cbd5e1" stroke-width="0.5" />
    <rect x="33" y="80" width="4" height="4" fill="none" stroke="#cbd5e1" stroke-width="0.5" />
    <rect x="43" y="80" width="4" height="4" fill="none" stroke="#cbd5e1" stroke-width="0.5" />

    <!-- Body -->
    <path d="M 15 5 L 45 5 C 50 5 55 10 55 15 L 55 65 L 5 65 L 5 15 C 5 10 10 5 15 5 Z" fill="#f1f5f9" stroke="#94a3b8" stroke-width="1" />
    
    <!-- Mounting hole -->
    <circle cx="30" cy="12" r="4" fill="#ffffff" stroke="#94a3b8" stroke-width="1" />
    
    <path d="M 5 20 L 55 20" stroke="#94a3b8" stroke-width="1" />
    
    <!-- Slits -->
    <g stroke="#94a3b8" stroke-width="1" fill="none" transform="translate(0, 25)">
        <rect x="8" y="0" width="10" height="3" rx="1.5" />
        <rect x="22" y="0" width="6" height="3" rx="1.5" />
        <rect x="32" y="0" width="6" height="3" rx="1.5" />
        <rect x="42" y="0" width="10" height="3" rx="1.5" />
        
        <rect x="8" y="6" width="10" height="3" rx="1.5" />
        <rect x="22" y="6" width="6" height="3" rx="1.5" />
        <rect x="32" y="6" width="6" height="3" rx="1.5" />
        <rect x="42" y="6" width="10" height="3" rx="1.5" />
        
        <rect x="8" y="12" width="10" height="3" rx="1.5" />
        <rect x="22" y="12" width="6" height="3" rx="1.5" />
        <rect x="32" y="12" width="6" height="3" rx="1.5" />
        <rect x="42" y="12" width="10" height="3" rx="1.5" />
        
        <rect x="8" y="18" width="10" height="3" rx="1.5" />
        <rect x="22" y="18" width="6" height="3" rx="1.5" />
        <rect x="32" y="18" width="6" height="3" rx="1.5" />
        <rect x="42" y="18" width="10" height="3" rx="1.5" />
        
        <rect x="8" y="24" width="10" height="3" rx="1.5" />
        <rect x="22" y="24" width="6" height="3" rx="1.5" />
        <rect x="32" y="24" width="6" height="3" rx="1.5" />
        <rect x="42" y="24" width="10" height="3" rx="1.5" />
        
        <rect x="8" y="30" width="10" height="3" rx="1.5" />
        <rect x="22" y="30" width="6" height="3" rx="1.5" />
        <rect x="32" y="30" width="6" height="3" rx="1.5" />
        <rect x="42" y="30" width="10" height="3" rx="1.5" />
    </g>
    
    <text x="30" y="60" font-family="sans-serif" font-size="6" fill="#0f172a" text-anchor="middle">DHT22</text>
</svg>
