<svg width="315" height="135" viewBox="0 0 315 135" xmlns="http://www.w3.org/2000/svg" style="pointer-events: none;">
    <!-- PCB Background -->
    <rect x="0" y="0" width="315" height="135" fill="#006633" rx="2" />
    
    <!-- Screen Bezel (Black) -->
    <rect x="25" y="25" width="265" height="105" fill="#000000" />
    
    <!-- Screen (Green) -->
    <rect x="35" y="35" width="245" height="85" fill="#669900" rx="4" />
    
    <!-- Simulated 16x2 grid faintly visible -->
    <rect x="40" y="40" width="12" height="30" fill="#5c8a00" />
    <rect x="54.5" y="40" width="12" height="30" fill="#5c8a00" />
    <rect x="69" y="40" width="12" height="30" fill="#5c8a00" />
    <rect x="83.5" y="40" width="12" height="30" fill="#5c8a00" />
    <rect x="98" y="40" width="12" height="30" fill="#5c8a00" />
    <rect x="112.5" y="40" width="12" height="30" fill="#5c8a00" />
    <rect x="127" y="40" width="12" height="30" fill="#5c8a00" />
    <rect x="141.5" y="40" width="12" height="30" fill="#5c8a00" />
    <rect x="156" y="40" width="12" height="30" fill="#5c8a00" />
    <rect x="170.5" y="40" width="12" height="30" fill="#5c8a00" />
    <rect x="185" y="40" width="12" height="30" fill="#5c8a00" />
    <rect x="199.5" y="40" width="12" height="30" fill="#5c8a00" />
    <rect x="214" y="40" width="12" height="30" fill="#5c8a00" />
    <rect x="228.5" y="40" width="12" height="30" fill="#5c8a00" />
    <rect x="243" y="40" width="12" height="30" fill="#5c8a00" />
    <rect x="257.5" y="40" width="12" height="30" fill="#5c8a00" />
    <rect x="40" y="80" width="12" height="30" fill="#5c8a00" />
    <rect x="54.5" y="80" width="12" height="30" fill="#5c8a00" />
    <rect x="69" y="80" width="12" height="30" fill="#5c8a00" />
    <rect x="83.5" y="80" width="12" height="30" fill="#5c8a00" />
    <rect x="98" y="80" width="12" height="30" fill="#5c8a00" />
    <rect x="112.5" y="80" width="12" height="30" fill="#5c8a00" />
    <rect x="127" y="80" width="12" height="30" fill="#5c8a00" />
    <rect x="141.5" y="80" width="12" height="30" fill="#5c8a00" />
    <rect x="156" y="80" width="12" height="30" fill="#5c8a00" />
    <rect x="170.5" y="80" width="12" height="30" fill="#5c8a00" />
    <rect x="185" y="80" width="12" height="30" fill="#5c8a00" />
    <rect x="199.5" y="80" width="12" height="30" fill="#5c8a00" />
    <rect x="214" y="80" width="12" height="30" fill="#5c8a00" />
    <rect x="228.5" y="80" width="12" height="30" fill="#5c8a00" />
    <rect x="243" y="80" width="12" height="30" fill="#5c8a00" />
    <rect x="257.5" y="80" width="12" height="30" fill="#5c8a00" />

    <!-- Custom SVG Pins Overlay -->
    <g>
        <circle cx="45" cy="15" r="4" fill="#92926d" />
        <circle cx="45" cy="15" r="2" fill="#000000" />
        <text x="45" y="9" fill="#ffffff" font-size="7" font-family="monospace" text-anchor="middle" font-weight="bold">VSS</text>
        <text x="35" y="18" fill="#ffffff" font-size="8" font-family="monospace" text-anchor="middle" font-weight="bold">1</text>
    </g>
    <g>
        <circle cx="60" cy="15" r="4" fill="#92926d" />
        <circle cx="60" cy="15" r="2" fill="#000000" />
        <text x="60" y="9" fill="#ffffff" font-size="7" font-family="monospace" text-anchor="middle" font-weight="bold">VDD</text>
    </g>
    <g>
        <circle cx="75" cy="15" r="4" fill="#92926d" />
        <circle cx="75" cy="15" r="2" fill="#000000" />
        <text x="75" y="9" fill="#ffffff" font-size="7" font-family="monospace" text-anchor="middle" font-weight="bold">V0</text>
    </g>
    <g>
        <circle cx="90" cy="15" r="4" fill="#92926d" />
        <circle cx="90" cy="15" r="2" fill="#000000" />
        <text x="90" y="9" fill="#ffffff" font-size="7" font-family="monospace" text-anchor="middle" font-weight="bold">RS</text>
    </g>
    <g>
        <circle cx="105" cy="15" r="4" fill="#92926d" />
        <circle cx="105" cy="15" r="2" fill="#000000" />
        <text x="105" y="9" fill="#ffffff" font-size="7" font-family="monospace" text-anchor="middle" font-weight="bold">RW</text>
    </g>
    <g>
        <circle cx="120" cy="15" r="4" fill="#92926d" />
        <circle cx="120" cy="15" r="2" fill="#000000" />
        <text x="120" y="9" fill="#ffffff" font-size="7" font-family="monospace" text-anchor="middle" font-weight="bold">E</text>
    </g>
    <g>
        <circle cx="135" cy="15" r="4" fill="#92926d" />
        <circle cx="135" cy="15" r="2" fill="#000000" />
        <text x="135" y="9" fill="#ffffff" font-size="7" font-family="monospace" text-anchor="middle" font-weight="bold">D0</text>
    </g>
    <g>
        <circle cx="150" cy="15" r="4" fill="#92926d" />
        <circle cx="150" cy="15" r="2" fill="#000000" />
        <text x="150" y="9" fill="#ffffff" font-size="7" font-family="monospace" text-anchor="middle" font-weight="bold">D1</text>
    </g>
    <g>
        <circle cx="165" cy="15" r="4" fill="#92926d" />
        <circle cx="165" cy="15" r="2" fill="#000000" />
        <text x="165" y="9" fill="#ffffff" font-size="7" font-family="monospace" text-anchor="middle" font-weight="bold">D2</text>
    </g>
    <g>
        <circle cx="180" cy="15" r="4" fill="#92926d" />
        <circle cx="180" cy="15" r="2" fill="#000000" />
        <text x="180" y="9" fill="#ffffff" font-size="7" font-family="monospace" text-anchor="middle" font-weight="bold">D3</text>
    </g>
    <g>
        <circle cx="195" cy="15" r="4" fill="#92926d" />
        <circle cx="195" cy="15" r="2" fill="#000000" />
        <text x="195" y="9" fill="#ffffff" font-size="7" font-family="monospace" text-anchor="middle" font-weight="bold">D4</text>
    </g>
    <g>
        <circle cx="210" cy="15" r="4" fill="#92926d" />
        <circle cx="210" cy="15" r="2" fill="#000000" />
        <text x="210" y="9" fill="#ffffff" font-size="7" font-family="monospace" text-anchor="middle" font-weight="bold">D5</text>
    </g>
    <g>
        <circle cx="225" cy="15" r="4" fill="#92926d" />
        <circle cx="225" cy="15" r="2" fill="#000000" />
        <text x="225" y="9" fill="#ffffff" font-size="7" font-family="monospace" text-anchor="middle" font-weight="bold">D6</text>
    </g>
    <g>
        <circle cx="240" cy="15" r="4" fill="#92926d" />
        <circle cx="240" cy="15" r="2" fill="#000000" />
        <text x="240" y="9" fill="#ffffff" font-size="7" font-family="monospace" text-anchor="middle" font-weight="bold">D7</text>
    </g>
    <g>
        <circle cx="255" cy="15" r="4" fill="#92926d" />
        <circle cx="255" cy="15" r="2" fill="#000000" />
        <text x="255" y="9" fill="#ffffff" font-size="7" font-family="monospace" text-anchor="middle" font-weight="bold">A</text>
    </g>
    <g>
        <circle cx="270" cy="15" r="4" fill="#92926d" />
        <circle cx="270" cy="15" r="2" fill="#000000" />
        <text x="270" y="9" fill="#ffffff" font-size="7" font-family="monospace" text-anchor="middle" font-weight="bold">K</text>
        <text x="282" y="18" fill="#ffffff" font-size="8" font-family="monospace" text-anchor="middle" font-weight="bold">16</text>
    </g>
</svg>