<svg width="100%" height="100%" viewBox="0 0 495 295" xmlns="http://www.w3.org/2000/svg" style="display: block;">
  <rect width="495" height="295" fill="#fbfbf6" rx="10" stroke="#dddddd" stroke-width="2" />
  <line x1="30" y1="28" x2="465" y2="28" stroke="#0000ff" stroke-width="2" stroke-opacity="0.6" />
  <line x1="30" y1="43" x2="465" y2="43" stroke="#ff0000" stroke-width="2" stroke-opacity="0.6" />
  <text x="8" y="22" font-size="8" fill="#0000ff" text-anchor="start" font-weight="700">GND</text>
  <text x="8" y="38" font-size="8" fill="#dc2626" text-anchor="start" font-weight="700">3.3V</text>
  <line x1="30" y1="252" x2="465" y2="252" stroke="#ff0000" stroke-width="2" stroke-opacity="0.6" />
  <line x1="30" y1="267" x2="465" y2="267" stroke="#0000ff" stroke-width="2" stroke-opacity="0.75" />
  <text x="15" y="262" font-size="8" fill="#dc2626" text-anchor="start" font-weight="700">5V</text>
  <text x="8" y="277" font-size="8" fill="#0000ff" text-anchor="start" font-weight="700">GND</text>
  <rect x="20" y="127" width="455" height="10" fill="#eeeeee" />
  <rect x="27" y="17" width="6" height="6" fill="#333333" rx="1" />
  <rect x="27" y="32" width="6" height="6" fill="#333333" rx="1" />
  <rect x="42" y="17" width="6" height="6" fill="#333333" rx="1" />
  <rect x="42" y="32" width="6" height="6" fill="#333333" rx="1" />
  <rect x="57" y="17" width="6" height="6" fill="#333333" rx="1" />
  <rect x="57" y="32" width="6" height="6" fill="#333333" rx="1" />
  <rect x="72" y="17" width="6" height="6" fill="#333333" rx="1" />
  <rect x="72" y="32" width="6" height="6" fill="#333333" rx="1" />
  <rect x="87" y="17" width="6" height="6" fill="#333333" rx="1" />
  <rect x="87" y="32" width="6" height="6" fill="#333333" rx="1" />
  <rect x="117" y="17" width="6" height="6" fill="#333333" rx="1" />
  <rect x="117" y="32" width="6" height="6" fill="#333333" rx="1" />
  <rect x="132" y="17" width="6" height="6" fill="#333333" rx="1" />
  <rect x="132" y="32" width="6" height="6" fill="#333333" rx="1" />
  <rect x="147" y="17" width="6" height="6" fill="#333333" rx="1" />
  <rect x="147" y="32" width="6" height="6" fill="#333333" rx="1" />
  <rect x="162" y="17" width="6" height="6" fill="#333333" rx="1" />
  <rect x="162" y="32" width="6" height="6" fill="#333333" rx="1" />
  <rect x="177" y="17" width="6" height="6" fill="#333333" rx="1" />
  <rect x="177" y="32" width="6" height="6" fill="#333333" rx="1" />
  <rect x="207" y="17" width="6" height="6" fill="#333333" rx="1" />
  <rect x="207" y="32" width="6" height="6" fill="#333333" rx="1" />
  <rect x="222" y="17" width="6" height="6" fill="#333333" rx="1" />
  <rect x="222" y="32" width="6" height="6" fill="#333333" rx="1" />
  <rect x="237" y="17" width="6" height="6" fill="#333333" rx="1" />
  <rect x="237" y="32" width="6" height="6" fill="#333333" rx="1" />
  <rect x="252" y="17" width="6" height="6" fill="#333333" rx="1" />
  <rect x="252" y="32" width="6" height="6" fill="#333333" rx="1" />
  <rect x="267" y="17" width="6" height="6" fill="#333333" rx="1" />
  <rect x="267" y="32" width="6" height="6" fill="#333333" rx="1" />
  <rect x="297" y="17" width="6" height="6" fill="#333333" rx="1" />
  <rect x="297" y="32" width="6" height="6" fill="#333333" rx="1" />
  <rect x="312" y="17" width="6" height="6" fill="#333333" rx="1" />
  <rect x="312" y="32" width="6" height="6" fill="#333333" rx="1" />
  <rect x="327" y="17" width="6" height="6" fill="#333333" rx="1" />
  <rect x="327" y="32" width="6" height="6" fill="#333333" rx="1" />
  <rect x="342" y="17" width="6" height="6" fill="#333333" rx="1" />
  <rect x="342" y="32" width="6" height="6" fill="#333333" rx="1" />
  <rect x="357" y="17" width="6" height="6" fill="#333333" rx="1" />
  <rect x="357" y="32" width="6" height="6" fill="#333333" rx="1" />
  <rect x="387" y="17" width="6" height="6" fill="#333333" rx="1" />
  <rect x="387" y="32" width="6" height="6" fill="#333333" rx="1" />
  <rect x="402" y="17" width="6" height="6" fill="#333333" rx="1" />
  <rect x="402" y="32" width="6" height="6" fill="#333333" rx="1" />
  <rect x="417" y="17" width="6" height="6" fill="#333333" rx="1" />
  <rect x="417" y="32" width="6" height="6" fill="#333333" rx="1" />
  <rect x="432" y="17" width="6" height="6" fill="#333333" rx="1" />
  <rect x="432" y="32" width="6" height="6" fill="#333333" rx="1" />
  <rect x="447" y="17" width="6" height="6" fill="#333333" rx="1" />
  <rect x="447" y="32" width="6" height="6" fill="#333333" rx="1" />
  <rect x="27" y="62" width="6" height="6" fill="#333333" rx="1" />
  <rect x="27" y="77" width="6" height="6" fill="#333333" rx="1" />
  <rect x="27" y="92" width="6" height="6" fill="#333333" rx="1" />
  <rect x="27" y="107" width="6" height="6" fill="#333333" rx="1" />
  <rect x="27" y="122" width="6" height="6" fill="#333333" rx="1" />
  <rect x="27" y="167" width="6" height="6" fill="#333333" rx="1" />
  <rect x="27" y="182" width="6" height="6" fill="#333333" rx="1" />
  <rect x="27" y="197" width="6" height="6" fill="#333333" rx="1" />
  <rect x="27" y="212" width="6" height="6" fill="#333333" rx="1" />
  <rect x="27" y="227" width="6" height="6" fill="#333333" rx="1" />
  <rect x="42" y="62" width="6" height="6" fill="#333333" rx="1" />
  <rect x="42" y="77" width="6" height="6" fill="#333333" rx="1" />
  <rect x="42" y="92" width="6" height="6" fill="#333333" rx="1" />
  <rect x="42" y="107" width="6" height="6" fill="#333333" rx="1" />
  <rect x="42" y="122" width="6" height="6" fill="#333333" rx="1" />
  <rect x="42" y="167" width="6" height="6" fill="#333333" rx="1" />
  <rect x="42" y="182" width="6" height="6" fill="#333333" rx="1" />
  <rect x="42" y="197" width="6" height="6" fill="#333333" rx="1" />
  <rect x="42" y="212" width="6" height="6" fill="#333333" rx="1" />
  <rect x="42" y="227" width="6" height="6" fill="#333333" rx="1" />
  <rect x="57" y="62" width="6" height="6" fill="#333333" rx="1" />
  <rect x="57" y="77" width="6" height="6" fill="#333333" rx="1" />
  <rect x="57" y="92" width="6" height="6" fill="#333333" rx="1" />
  <rect x="57" y="107" width="6" height="6" fill="#333333" rx="1" />
  <rect x="57" y="122" width="6" height="6" fill="#333333" rx="1" />
  <rect x="57" y="167" width="6" height="6" fill="#333333" rx="1" />
  <rect x="57" y="182" width="6" height="6" fill="#333333" rx="1" />
  <rect x="57" y="197" width="6" height="6" fill="#333333" rx="1" />
  <rect x="57" y="212" width="6" height="6" fill="#333333" rx="1" />
  <rect x="57" y="227" width="6" height="6" fill="#333333" rx="1" />
  <rect x="72" y="62" width="6" height="6" fill="#333333" rx="1" />
  <rect x="72" y="77" width="6" height="6" fill="#333333" rx="1" />
  <rect x="72" y="92" width="6" height="6" fill="#333333" rx="1" />
  <rect x="72" y="107" width="6" height="6" fill="#333333" rx="1" />
  <rect x="72" y="122" width="6" height="6" fill="#333333" rx="1" />
  <rect x="72" y="167" width="6" height="6" fill="#333333" rx="1" />
  <rect x="72" y="182" width="6" height="6" fill="#333333" rx="1" />
  <rect x="72" y="197" width="6" height="6" fill="#333333" rx="1" />
  <rect x="72" y="212" width="6" height="6" fill="#333333" rx="1" />
  <rect x="72" y="227" width="6" height="6" fill="#333333" rx="1" />
  <rect x="87" y="62" width="6" height="6" fill="#333333" rx="1" />
  <rect x="87" y="77" width="6" height="6" fill="#333333" rx="1" />
  <rect x="87" y="92" width="6" height="6" fill="#333333" rx="1" />
  <rect x="87" y="107" width="6" height="6" fill="#333333" rx="1" />
  <rect x="87" y="122" width="6" height="6" fill="#333333" rx="1" />
  <rect x="87" y="167" width="6" height="6" fill="#333333" rx="1" />
  <rect x="87" y="182" width="6" height="6" fill="#333333" rx="1" />
  <rect x="87" y="197" width="6" height="6" fill="#333333" rx="1" />
  <rect x="87" y="212" width="6" height="6" fill="#333333" rx="1" />
  <rect x="87" y="227" width="6" height="6" fill="#333333" rx="1" />
  <rect x="102" y="62" width="6" height="6" fill="#333333" rx="1" />
  <rect x="102" y="77" width="6" height="6" fill="#333333" rx="1" />
  <rect x="102" y="92" width="6" height="6" fill="#333333" rx="1" />
  <rect x="102" y="107" width="6" height="6" fill="#333333" rx="1" />
  <rect x="102" y="122" width="6" height="6" fill="#333333" rx="1" />
  <rect x="102" y="167" width="6" height="6" fill="#333333" rx="1" />
  <rect x="102" y="182" width="6" height="6" fill="#333333" rx="1" />
  <rect x="102" y="197" width="6" height="6" fill="#333333" rx="1" />
  <rect x="102" y="212" width="6" height="6" fill="#333333" rx="1" />
  <rect x="102" y="227" width="6" height="6" fill="#333333" rx="1" />
  <rect x="117" y="62" width="6" height="6" fill="#333333" rx="1" />
  <rect x="117" y="77" width="6" height="6" fill="#333333" rx="1" />
  <rect x="117" y="92" width="6" height="6" fill="#333333" rx="1" />
  <rect x="117" y="107" width="6" height="6" fill="#333333" rx="1" />
  <rect x="117" y="122" width="6" height="6" fill="#333333" rx="1" />
  <rect x="117" y="167" width="6" height="6" fill="#333333" rx="1" />
  <rect x="117" y="182" width="6" height="6" fill="#333333" rx="1" />
  <rect x="117" y="197" width="6" height="6" fill="#333333" rx="1" />
  <rect x="117" y="212" width="6" height="6" fill="#333333" rx="1" />
  <rect x="117" y="227" width="6" height="6" fill="#333333" rx="1" />
  <rect x="132" y="62" width="6" height="6" fill="#333333" rx="1" />
  <rect x="132" y="77" width="6" height="6" fill="#333333" rx="1" />
  <rect x="132" y="92" width="6" height="6" fill="#333333" rx="1" />
  <rect x="132" y="107" width="6" height="6" fill="#333333" rx="1" />
  <rect x="132" y="122" width="6" height="6" fill="#333333" rx="1" />
  <rect x="132" y="167" width="6" height="6" fill="#333333" rx="1" />
  <rect x="132" y="182" width="6" height="6" fill="#333333" rx="1" />
  <rect x="132" y="197" width="6" height="6" fill="#333333" rx="1" />
  <rect x="132" y="212" width="6" height="6" fill="#333333" rx="1" />
  <rect x="132" y="227" width="6" height="6" fill="#333333" rx="1" />
  <rect x="147" y="62" width="6" height="6" fill="#333333" rx="1" />
  <rect x="147" y="77" width="6" height="6" fill="#333333" rx="1" />
  <rect x="147" y="92" width="6" height="6" fill="#333333" rx="1" />
  <rect x="147" y="107" width="6" height="6" fill="#333333" rx="1" />
  <rect x="147" y="122" width="6" height="6" fill="#333333" rx="1" />
  <rect x="147" y="167" width="6" height="6" fill="#333333" rx="1" />
  <rect x="147" y="182" width="6" height="6" fill="#333333" rx="1" />
  <rect x="147" y="197" width="6" height="6" fill="#333333" rx="1" />
  <rect x="147" y="212" width="6" height="6" fill="#333333" rx="1" />
  <rect x="147" y="227" width="6" height="6" fill="#333333" rx="1" />
  <rect x="162" y="62" width="6" height="6" fill="#333333" rx="1" />
  <rect x="162" y="77" width="6" height="6" fill="#333333" rx="1" />
  <rect x="162" y="92" width="6" height="6" fill="#333333" rx="1" />
  <rect x="162" y="107" width="6" height="6" fill="#333333" rx="1" />
  <rect x="162" y="122" width="6" height="6" fill="#333333" rx="1" />
  <rect x="162" y="167" width="6" height="6" fill="#333333" rx="1" />
  <rect x="162" y="182" width="6" height="6" fill="#333333" rx="1" />
  <rect x="162" y="197" width="6" height="6" fill="#333333" rx="1" />
  <rect x="162" y="212" width="6" height="6" fill="#333333" rx="1" />
  <rect x="162" y="227" width="6" height="6" fill="#333333" rx="1" />
  <rect x="177" y="62" width="6" height="6" fill="#333333" rx="1" />
  <rect x="177" y="77" width="6" height="6" fill="#333333" rx="1" />
  <rect x="177" y="92" width="6" height="6" fill="#333333" rx="1" />
  <rect x="177" y="107" width="6" height="6" fill="#333333" rx="1" />
  <rect x="177" y="122" width="6" height="6" fill="#333333" rx="1" />
  <rect x="177" y="167" width="6" height="6" fill="#333333" rx="1" />
  <rect x="177" y="182" width="6" height="6" fill="#333333" rx="1" />
  <rect x="177" y="197" width="6" height="6" fill="#333333" rx="1" />
  <rect x="177" y="212" width="6" height="6" fill="#333333" rx="1" />
  <rect x="177" y="227" width="6" height="6" fill="#333333" rx="1" />
  <rect x="192" y="62" width="6" height="6" fill="#333333" rx="1" />
  <rect x="192" y="77" width="6" height="6" fill="#333333" rx="1" />
  <rect x="192" y="92" width="6" height="6" fill="#333333" rx="1" />
  <rect x="192" y="107" width="6" height="6" fill="#333333" rx="1" />
  <rect x="192" y="122" width="6" height="6" fill="#333333" rx="1" />
  <rect x="192" y="167" width="6" height="6" fill="#333333" rx="1" />
  <rect x="192" y="182" width="6" height="6" fill="#333333" rx="1" />
  <rect x="192" y="197" width="6" height="6" fill="#333333" rx="1" />
  <rect x="192" y="212" width="6" height="6" fill="#333333" rx="1" />
  <rect x="192" y="227" width="6" height="6" fill="#333333" rx="1" />
  <rect x="207" y="62" width="6" height="6" fill="#333333" rx="1" />
  <rect x="207" y="77" width="6" height="6" fill="#333333" rx="1" />
  <rect x="207" y="92" width="6" height="6" fill="#333333" rx="1" />
  <rect x="207" y="107" width="6" height="6" fill="#333333" rx="1" />
  <rect x="207" y="122" width="6" height="6" fill="#333333" rx="1" />
  <rect x="207" y="167" width="6" height="6" fill="#333333" rx="1" />
  <rect x="207" y="182" width="6" height="6" fill="#333333" rx="1" />
  <rect x="207" y="197" width="6" height="6" fill="#333333" rx="1" />
  <rect x="207" y="212" width="6" height="6" fill="#333333" rx="1" />
  <rect x="207" y="227" width="6" height="6" fill="#333333" rx="1" />
  <rect x="222" y="62" width="6" height="6" fill="#333333" rx="1" />
  <rect x="222" y="77" width="6" height="6" fill="#333333" rx="1" />
  <rect x="222" y="92" width="6" height="6" fill="#333333" rx="1" />
  <rect x="222" y="107" width="6" height="6" fill="#333333" rx="1" />
  <rect x="222" y="122" width="6" height="6" fill="#333333" rx="1" />
  <rect x="222" y="167" width="6" height="6" fill="#333333" rx="1" />
  <rect x="222" y="182" width="6" height="6" fill="#333333" rx="1" />
  <rect x="222" y="197" width="6" height="6" fill="#333333" rx="1" />
  <rect x="222" y="212" width="6" height="6" fill="#333333" rx="1" />
  <rect x="222" y="227" width="6" height="6" fill="#333333" rx="1" />
  <rect x="237" y="62" width="6" height="6" fill="#333333" rx="1" />
  <rect x="237" y="77" width="6" height="6" fill="#333333" rx="1" />
  <rect x="237" y="92" width="6" height="6" fill="#333333" rx="1" />
  <rect x="237" y="107" width="6" height="6" fill="#333333" rx="1" />
  <rect x="237" y="122" width="6" height="6" fill="#333333" rx="1" />
  <rect x="237" y="167" width="6" height="6" fill="#333333" rx="1" />
  <rect x="237" y="182" width="6" height="6" fill="#333333" rx="1" />
  <rect x="237" y="197" width="6" height="6" fill="#333333" rx="1" />
  <rect x="237" y="212" width="6" height="6" fill="#333333" rx="1" />
  <rect x="237" y="227" width="6" height="6" fill="#333333" rx="1" />
  <rect x="252" y="62" width="6" height="6" fill="#333333" rx="1" />
  <rect x="252" y="77" width="6" height="6" fill="#333333" rx="1" />
  <rect x="252" y="92" width="6" height="6" fill="#333333" rx="1" />
  <rect x="252" y="107" width="6" height="6" fill="#333333" rx="1" />
  <rect x="252" y="122" width="6" height="6" fill="#333333" rx="1" />
  <rect x="252" y="167" width="6" height="6" fill="#333333" rx="1" />
  <rect x="252" y="182" width="6" height="6" fill="#333333" rx="1" />
  <rect x="252" y="197" width="6" height="6" fill="#333333" rx="1" />
  <rect x="252" y="212" width="6" height="6" fill="#333333" rx="1" />
  <rect x="252" y="227" width="6" height="6" fill="#333333" rx="1" />
  <rect x="267" y="62" width="6" height="6" fill="#333333" rx="1" />
  <rect x="267" y="77" width="6" height="6" fill="#333333" rx="1" />
  <rect x="267" y="92" width="6" height="6" fill="#333333" rx="1" />
  <rect x="267" y="107" width="6" height="6" fill="#333333" rx="1" />
  <rect x="267" y="122" width="6" height="6" fill="#333333" rx="1" />
  <rect x="267" y="167" width="6" height="6" fill="#333333" rx="1" />
  <rect x="267" y="182" width="6" height="6" fill="#333333" rx="1" />
  <rect x="267" y="197" width="6" height="6" fill="#333333" rx="1" />
  <rect x="267" y="212" width="6" height="6" fill="#333333" rx="1" />
  <rect x="267" y="227" width="6" height="6" fill="#333333" rx="1" />
  <rect x="282" y="62" width="6" height="6" fill="#333333" rx="1" />
  <rect x="282" y="77" width="6" height="6" fill="#333333" rx="1" />
  <rect x="282" y="92" width="6" height="6" fill="#333333" rx="1" />
  <rect x="282" y="107" width="6" height="6" fill="#333333" rx="1" />
  <rect x="282" y="122" width="6" height="6" fill="#333333" rx="1" />
  <rect x="282" y="167" width="6" height="6" fill="#333333" rx="1" />
  <rect x="282" y="182" width="6" height="6" fill="#333333" rx="1" />
  <rect x="282" y="197" width="6" height="6" fill="#333333" rx="1" />
  <rect x="282" y="212" width="6" height="6" fill="#333333" rx="1" />
  <rect x="282" y="227" width="6" height="6" fill="#333333" rx="1" />
  <rect x="297" y="62" width="6" height="6" fill="#333333" rx="1" />
  <rect x="297" y="77" width="6" height="6" fill="#333333" rx="1" />
  <rect x="297" y="92" width="6" height="6" fill="#333333" rx="1" />
  <rect x="297" y="107" width="6" height="6" fill="#333333" rx="1" />
  <rect x="297" y="122" width="6" height="6" fill="#333333" rx="1" />
  <rect x="297" y="167" width="6" height="6" fill="#333333" rx="1" />
  <rect x="297" y="182" width="6" height="6" fill="#333333" rx="1" />
  <rect x="297" y="197" width="6" height="6" fill="#333333" rx="1" />
  <rect x="297" y="212" width="6" height="6" fill="#333333" rx="1" />
  <rect x="297" y="227" width="6" height="6" fill="#333333" rx="1" />
  <rect x="312" y="62" width="6" height="6" fill="#333333" rx="1" />
  <rect x="312" y="77" width="6" height="6" fill="#333333" rx="1" />
  <rect x="312" y="92" width="6" height="6" fill="#333333" rx="1" />
  <rect x="312" y="107" width="6" height="6" fill="#333333" rx="1" />
  <rect x="312" y="122" width="6" height="6" fill="#333333" rx="1" />
  <rect x="312" y="167" width="6" height="6" fill="#333333" rx="1" />
  <rect x="312" y="182" width="6" height="6" fill="#333333" rx="1" />
  <rect x="312" y="197" width="6" height="6" fill="#333333" rx="1" />
  <rect x="312" y="212" width="6" height="6" fill="#333333" rx="1" />
  <rect x="312" y="227" width="6" height="6" fill="#333333" rx="1" />
  <rect x="327" y="62" width="6" height="6" fill="#333333" rx="1" />
  <rect x="327" y="77" width="6" height="6" fill="#333333" rx="1" />
  <rect x="327" y="92" width="6" height="6" fill="#333333" rx="1" />
  <rect x="327" y="107" width="6" height="6" fill="#333333" rx="1" />
  <rect x="327" y="122" width="6" height="6" fill="#333333" rx="1" />
  <rect x="327" y="167" width="6" height="6" fill="#333333" rx="1" />
  <rect x="327" y="182" width="6" height="6" fill="#333333" rx="1" />
  <rect x="327" y="197" width="6" height="6" fill="#333333" rx="1" />
  <rect x="327" y="212" width="6" height="6" fill="#333333" rx="1" />
  <rect x="327" y="227" width="6" height="6" fill="#333333" rx="1" />
  <rect x="342" y="62" width="6" height="6" fill="#333333" rx="1" />
  <rect x="342" y="77" width="6" height="6" fill="#333333" rx="1" />
  <rect x="342" y="92" width="6" height="6" fill="#333333" rx="1" />
  <rect x="342" y="107" width="6" height="6" fill="#333333" rx="1" />
  <rect x="342" y="122" width="6" height="6" fill="#333333" rx="1" />
  <rect x="342" y="167" width="6" height="6" fill="#333333" rx="1" />
  <rect x="342" y="182" width="6" height="6" fill="#333333" rx="1" />
  <rect x="342" y="197" width="6" height="6" fill="#333333" rx="1" />
  <rect x="342" y="212" width="6" height="6" fill="#333333" rx="1" />
  <rect x="342" y="227" width="6" height="6" fill="#333333" rx="1" />
  <rect x="357" y="62" width="6" height="6" fill="#333333" rx="1" />
  <rect x="357" y="77" width="6" height="6" fill="#333333" rx="1" />
  <rect x="357" y="92" width="6" height="6" fill="#333333" rx="1" />
  <rect x="357" y="107" width="6" height="6" fill="#333333" rx="1" />
  <rect x="357" y="122" width="6" height="6" fill="#333333" rx="1" />
  <rect x="357" y="167" width="6" height="6" fill="#333333" rx="1" />
  <rect x="357" y="182" width="6" height="6" fill="#333333" rx="1" />
  <rect x="357" y="197" width="6" height="6" fill="#333333" rx="1" />
  <rect x="357" y="212" width="6" height="6" fill="#333333" rx="1" />
  <rect x="357" y="227" width="6" height="6" fill="#333333" rx="1" />
  <rect x="372" y="62" width="6" height="6" fill="#333333" rx="1" />
  <rect x="372" y="77" width="6" height="6" fill="#333333" rx="1" />
  <rect x="372" y="92" width="6" height="6" fill="#333333" rx="1" />
  <rect x="372" y="107" width="6" height="6" fill="#333333" rx="1" />
  <rect x="372" y="122" width="6" height="6" fill="#333333" rx="1" />
  <rect x="372" y="167" width="6" height="6" fill="#333333" rx="1" />
  <rect x="372" y="182" width="6" height="6" fill="#333333" rx="1" />
  <rect x="372" y="197" width="6" height="6" fill="#333333" rx="1" />
  <rect x="372" y="212" width="6" height="6" fill="#333333" rx="1" />
  <rect x="372" y="227" width="6" height="6" fill="#333333" rx="1" />
  <rect x="387" y="62" width="6" height="6" fill="#333333" rx="1" />
  <rect x="387" y="77" width="6" height="6" fill="#333333" rx="1" />
  <rect x="387" y="92" width="6" height="6" fill="#333333" rx="1" />
  <rect x="387" y="107" width="6" height="6" fill="#333333" rx="1" />
  <rect x="387" y="122" width="6" height="6" fill="#333333" rx="1" />
  <rect x="387" y="167" width="6" height="6" fill="#333333" rx="1" />
  <rect x="387" y="182" width="6" height="6" fill="#333333" rx="1" />
  <rect x="387" y="197" width="6" height="6" fill="#333333" rx="1" />
  <rect x="387" y="212" width="6" height="6" fill="#333333" rx="1" />
  <rect x="387" y="227" width="6" height="6" fill="#333333" rx="1" />
  <rect x="402" y="62" width="6" height="6" fill="#333333" rx="1" />
  <rect x="402" y="77" width="6" height="6" fill="#333333" rx="1" />
  <rect x="402" y="92" width="6" height="6" fill="#333333" rx="1" />
  <rect x="402" y="107" width="6" height="6" fill="#333333" rx="1" />
  <rect x="402" y="122" width="6" height="6" fill="#333333" rx="1" />
  <rect x="402" y="167" width="6" height="6" fill="#333333" rx="1" />
  <rect x="402" y="182" width="6" height="6" fill="#333333" rx="1" />
  <rect x="402" y="197" width="6" height="6" fill="#333333" rx="1" />
  <rect x="402" y="212" width="6" height="6" fill="#333333" rx="1" />
  <rect x="402" y="227" width="6" height="6" fill="#333333" rx="1" />
  <rect x="417" y="62" width="6" height="6" fill="#333333" rx="1" />
  <rect x="417" y="77" width="6" height="6" fill="#333333" rx="1" />
  <rect x="417" y="92" width="6" height="6" fill="#333333" rx="1" />
  <rect x="417" y="107" width="6" height="6" fill="#333333" rx="1" />
  <rect x="417" y="122" width="6" height="6" fill="#333333" rx="1" />
  <rect x="417" y="167" width="6" height="6" fill="#333333" rx="1" />
  <rect x="417" y="182" width="6" height="6" fill="#333333" rx="1" />
  <rect x="417" y="197" width="6" height="6" fill="#333333" rx="1" />
  <rect x="417" y="212" width="6" height="6" fill="#333333" rx="1" />
  <rect x="417" y="227" width="6" height="6" fill="#333333" rx="1" />
  <rect x="432" y="62" width="6" height="6" fill="#333333" rx="1" />
  <rect x="432" y="77" width="6" height="6" fill="#333333" rx="1" />
  <rect x="432" y="92" width="6" height="6" fill="#333333" rx="1" />
  <rect x="432" y="107" width="6" height="6" fill="#333333" rx="1" />
  <rect x="432" y="122" width="6" height="6" fill="#333333" rx="1" />
  <rect x="432" y="167" width="6" height="6" fill="#333333" rx="1" />
  <rect x="432" y="182" width="6" height="6" fill="#333333" rx="1" />
  <rect x="432" y="197" width="6" height="6" fill="#333333" rx="1" />
  <rect x="432" y="212" width="6" height="6" fill="#333333" rx="1" />
  <rect x="432" y="227" width="6" height="6" fill="#333333" rx="1" />
  <rect x="447" y="62" width="6" height="6" fill="#333333" rx="1" />
  <rect x="447" y="77" width="6" height="6" fill="#333333" rx="1" />
  <rect x="447" y="92" width="6" height="6" fill="#333333" rx="1" />
  <rect x="447" y="107" width="6" height="6" fill="#333333" rx="1" />
  <rect x="447" y="122" width="6" height="6" fill="#333333" rx="1" />
  <rect x="447" y="167" width="6" height="6" fill="#333333" rx="1" />
  <rect x="447" y="182" width="6" height="6" fill="#333333" rx="1" />
  <rect x="447" y="197" width="6" height="6" fill="#333333" rx="1" />
  <rect x="447" y="212" width="6" height="6" fill="#333333" rx="1" />
  <rect x="447" y="227" width="6" height="6" fill="#333333" rx="1" />
  <rect x="462" y="62" width="6" height="6" fill="#333333" rx="1" />
  <rect x="462" y="77" width="6" height="6" fill="#333333" rx="1" />
  <rect x="462" y="92" width="6" height="6" fill="#333333" rx="1" />
  <rect x="462" y="107" width="6" height="6" fill="#333333" rx="1" />
  <rect x="462" y="122" width="6" height="6" fill="#333333" rx="1" />
  <rect x="462" y="167" width="6" height="6" fill="#333333" rx="1" />
  <rect x="462" y="182" width="6" height="6" fill="#333333" rx="1" />
  <rect x="462" y="197" width="6" height="6" fill="#333333" rx="1" />
  <rect x="462" y="212" width="6" height="6" fill="#333333" rx="1" />
  <rect x="462" y="227" width="6" height="6" fill="#333333" rx="1" />
  <rect x="27" y="257" width="6" height="6" fill="#333333" rx="1" />
  <rect x="27" y="272" width="6" height="6" fill="#333333" rx="1" />
  <rect x="42" y="257" width="6" height="6" fill="#333333" rx="1" />
  <rect x="42" y="272" width="6" height="6" fill="#333333" rx="1" />
  <rect x="57" y="257" width="6" height="6" fill="#333333" rx="1" />
  <rect x="57" y="272" width="6" height="6" fill="#333333" rx="1" />
  <rect x="72" y="257" width="6" height="6" fill="#333333" rx="1" />
  <rect x="72" y="272" width="6" height="6" fill="#333333" rx="1" />
  <rect x="87" y="257" width="6" height="6" fill="#333333" rx="1" />
  <rect x="87" y="272" width="6" height="6" fill="#333333" rx="1" />
  <rect x="117" y="257" width="6" height="6" fill="#333333" rx="1" />
  <rect x="117" y="272" width="6" height="6" fill="#333333" rx="1" />
  <rect x="132" y="257" width="6" height="6" fill="#333333" rx="1" />
  <rect x="132" y="272" width="6" height="6" fill="#333333" rx="1" />
  <rect x="147" y="257" width="6" height="6" fill="#333333" rx="1" />
  <rect x="147" y="272" width="6" height="6" fill="#333333" rx="1" />
  <rect x="162" y="257" width="6" height="6" fill="#333333" rx="1" />
  <rect x="162" y="272" width="6" height="6" fill="#333333" rx="1" />
  <rect x="177" y="257" width="6" height="6" fill="#333333" rx="1" />
  <rect x="177" y="272" width="6" height="6" fill="#333333" rx="1" />
  <rect x="207" y="257" width="6" height="6" fill="#333333" rx="1" />
  <rect x="207" y="272" width="6" height="6" fill="#333333" rx="1" />
  <rect x="222" y="257" width="6" height="6" fill="#333333" rx="1" />
  <rect x="222" y="272" width="6" height="6" fill="#333333" rx="1" />
  <rect x="237" y="257" width="6" height="6" fill="#333333" rx="1" />
  <rect x="237" y="272" width="6" height="6" fill="#333333" rx="1" />
  <rect x="252" y="257" width="6" height="6" fill="#333333" rx="1" />
  <rect x="252" y="272" width="6" height="6" fill="#333333" rx="1" />
  <rect x="267" y="257" width="6" height="6" fill="#333333" rx="1" />
  <rect x="267" y="272" width="6" height="6" fill="#333333" rx="1" />
  <rect x="297" y="257" width="6" height="6" fill="#333333" rx="1" />
  <rect x="297" y="272" width="6" height="6" fill="#333333" rx="1" />
  <rect x="312" y="257" width="6" height="6" fill="#333333" rx="1" />
  <rect x="312" y="272" width="6" height="6" fill="#333333" rx="1" />
  <rect x="327" y="257" width="6" height="6" fill="#333333" rx="1" />
  <rect x="327" y="272" width="6" height="6" fill="#333333" rx="1" />
  <rect x="342" y="257" width="6" height="6" fill="#333333" rx="1" />
  <rect x="342" y="272" width="6" height="6" fill="#333333" rx="1" />
  <rect x="357" y="257" width="6" height="6" fill="#333333" rx="1" />
  <rect x="357" y="272" width="6" height="6" fill="#333333" rx="1" />
  <rect x="387" y="257" width="6" height="6" fill="#333333" rx="1" />
  <rect x="387" y="272" width="6" height="6" fill="#333333" rx="1" />
  <rect x="402" y="257" width="6" height="6" fill="#333333" rx="1" />
  <rect x="402" y="272" width="6" height="6" fill="#333333" rx="1" />
  <rect x="417" y="257" width="6" height="6" fill="#333333" rx="1" />
  <rect x="417" y="272" width="6" height="6" fill="#333333" rx="1" />
  <rect x="432" y="257" width="6" height="6" fill="#333333" rx="1" />
  <rect x="432" y="272" width="6" height="6" fill="#333333" rx="1" />
  <rect x="447" y="257" width="6" height="6" fill="#333333" rx="1" />
  <rect x="447" y="272" width="6" height="6" fill="#333333" rx="1" />
  <g>
    <text x="30" y="60" font-size="8" fill="#555" text-anchor="middle">1</text>
    <text x="30" y="230" font-size="8" fill="#555" text-anchor="middle">1</text>
  </g>
  <g>
    <text x="105" y="60" font-size="8" fill="#555" text-anchor="middle">6</text>
    <text x="105" y="230" font-size="8" fill="#555" text-anchor="middle">6</text>
  </g>
  <g>
    <text x="180" y="60" font-size="8" fill="#555" text-anchor="middle">11</text>
    <text x="180" y="230" font-size="8" fill="#555" text-anchor="middle">11</text>
  </g>
  <g>
    <text x="255" y="60" font-size="8" fill="#555" text-anchor="middle">16</text>
    <text x="255" y="230" font-size="8" fill="#555" text-anchor="middle">16</text>
  </g>
  <g>
    <text x="330" y="60" font-size="8" fill="#555" text-anchor="middle">21</text>
    <text x="330" y="230" font-size="8" fill="#555" text-anchor="middle">21</text>
  </g>
  <g>
    <text x="405" y="60" font-size="8" fill="#555" text-anchor="middle">26</text>
    <text x="405" y="230" font-size="8" fill="#555" text-anchor="middle">26</text>
  </g>
</svg>
